<svg width="24" height="23" viewBox="0 0 24 23" fill="#787D85" xmlns="http://www.w3.org/2000/svg">
<path d="M5.05938 3.74976C5.05884 3.74976 5.05824 3.74976 5.0577 3.74976C4.86854 3.74976 4.69063 3.81888 4.55628 3.9445C4.42046 4.07151 4.34564 4.24063 4.34564 4.42066V14.4808C4.34564 14.8497 4.66706 15.1506 5.06221 15.1515C6.72807 15.1553 9.51906 15.4807 11.4445 17.3695V6.84131C11.4445 6.71626 11.4104 6.59878 11.3461 6.50156C9.76579 4.11589 6.72902 3.75342 5.05938 3.74976Z" />
<path d="M19.6544 14.4809V4.42066C19.6544 4.24063 19.5796 4.07151 19.4438 3.9445C19.3094 3.81888 19.1314 3.74976 18.9424 3.74976C18.9418 3.74976 18.9412 3.74976 18.9407 3.74976C17.2711 3.75348 14.2343 4.11595 12.654 6.50162C12.5897 6.59884 12.5557 6.71632 12.5557 6.84137V17.3695C14.4811 15.4807 17.272 15.1552 18.9379 15.1515C19.333 15.1506 19.6544 14.8497 19.6544 14.4809Z" />
<path d="M21.2845 6.06982H20.7655V14.4808C20.7655 15.4228 19.9469 16.1908 18.9405 16.1931C17.5275 16.1963 15.1977 16.4553 13.5477 17.9193C16.4014 17.2643 19.4098 17.6901 21.1243 18.0563C21.3383 18.102 21.5595 18.0548 21.7311 17.9267C21.902 17.7988 22 17.6077 22 17.4027V6.74061C22.0001 6.37075 21.679 6.06982 21.2845 6.06982Z" />
<path d="M3.23448 14.4809V6.06982H2.71556C2.32108 6.06982 2 6.37075 2 6.74061V17.4025C2 17.6076 2.09805 17.7987 2.26896 17.9265C2.44034 18.0546 2.66135 18.102 2.87576 18.0561C4.59024 17.6898 7.59867 17.2641 10.4523 17.9191C8.80231 16.4552 6.47247 16.1963 5.05947 16.1931C4.05321 16.1908 3.23448 15.4228 3.23448 14.4809Z" />
</svg>
