<svg width="24" height="23" viewBox="0 0 24 23" fill="none" xmlns="http://www.w3.org/2000/svg">
<path d="M15.09 4.16813L6.92174 8.08845L3.67499 6.59091L11.6992 2.87659C11.8792 2.79081 12.0952 2.79081 12.2842 2.87659L15.09 4.16813Z" fill="#787D85"/>
<path d="M20.316 6.59088L12.0045 10.4507L8.89202 9.01296L8.44202 8.79852L16.6193 4.87891L17.0693 5.09264L20.316 6.59088Z" fill="#787D85"/>
<path d="M11.3385 11.563L11.3295 19.6855L3.369 15.7912C3.144 15.6802 3 15.4573 3 15.2175V7.70312L6.3735 9.26113V12.0003C6.3735 12.3511 6.6795 12.6422 7.0485 12.6422C7.4175 12.6422 7.7235 12.3511 7.7235 12.0003V9.89459L8.1735 10.0999L11.3385 11.563Z" fill="#787D85"/>
<path d="M20.991 7.71167L12.6885 11.5546L12.6795 19.6772L21 15.6043L20.991 7.71167Z" fill="#787D85"/>
</svg>
